<svg version="1.1" id="Layer_1" xmlns="http://www.w3.org/2000/svg" x="0px" y="0px"
	 width="100%" viewBox="0 0 1024 1024" fill="currentColor" xml:space="preserve">
<path opacity="1.000000" stroke="none" 
	d="
M666.989014,435.751892 
	C670.319641,435.750641 673.153015,435.770050 675.985962,435.743988 
	C687.194031,435.640778 691.805054,431.456940 692.520142,420.269684 
	C692.849060,415.124176 692.557190,409.940643 692.604797,404.774872 
	C692.633118,401.698517 691.320923,400.193817 688.113708,400.201721 
	C666.281799,400.255585 644.449524,400.285034 622.617737,400.223114 
	C618.355957,400.211029 618.346191,402.923370 618.349792,405.924774 
	C618.374634,426.756744 618.386902,447.588745 618.385193,468.420715 
	C618.383972,484.086456 618.383057,499.752319 618.327393,515.417908 
	C618.303467,522.168030 618.138916,522.278625 611.213928,522.299744 
	C605.547607,522.317078 599.862366,522.014404 594.220459,522.384949 
	C589.299133,522.708191 587.959656,520.776794 587.977905,516.075317 
	C588.117065,480.244354 588.041138,444.412567 588.039978,408.581055 
	C588.039734,400.343231 588.053589,400.344025 579.758240,400.337036 
	C576.091736,400.333923 572.402588,400.582336 568.764343,400.259125 
	C563.828247,399.820648 562.058289,401.516479 562.112549,406.685272 
	C562.355957,429.848206 562.201477,453.015167 562.223022,476.180664 
	C562.235840,490.012817 562.198975,503.846710 562.430054,517.675720 
	C562.488831,521.194031 561.392334,522.436707 557.906982,522.348389 
	C550.911682,522.171082 543.904053,522.125488 536.911377,522.343445 
	C533.213196,522.458740 532.403015,520.828186 532.538147,517.553894 
	C532.812561,510.908661 532.529053,504.269012 531.691528,497.792847 
	C529.972839,496.737854 528.986267,497.987732 527.908752,498.588379 
	C510.327972,508.388306 491.754761,511.998596 472.023743,506.998901 
	C447.799774,500.860718 434.008331,482.766632 436.160187,455.824036 
	C438.268738,429.422882 462.766968,415.981201 482.580444,415.701752 
	C492.577820,415.560730 502.582092,415.837341 512.577087,415.629578 
	C516.733276,415.543243 518.281006,417.129364 518.158447,421.170502 
	C517.991760,426.664948 518.027893,432.170715 518.160828,437.667175 
	C518.243286,441.074677 516.865784,442.304657 513.432373,442.387848 
	C503.291107,442.633453 493.110229,441.456268 483.007202,443.224121 
	C473.087097,444.959930 466.086151,452.675934 466.435852,461.598846 
	C466.813782,471.243744 473.774048,478.718658 483.784607,479.807373 
	C501.080048,481.688385 516.498413,477.806549 528.821838,464.683258 
	C531.021484,462.340851 531.974915,459.803619 531.958130,456.596130 
	C531.870117,439.764160 531.820557,422.930573 531.977783,406.099640 
	C532.017822,401.817902 530.591309,400.237183 526.199463,400.252777 
	C490.535034,400.379425 454.869690,400.394501 419.205475,400.244598 
	C414.383148,400.224335 412.974518,401.853516 412.998138,406.608734 
	C413.177856,442.772736 413.119781,478.937897 413.121399,515.102722 
	C413.121704,521.874878 413.091736,521.874390 406.363831,522.532532 
	C400.208893,523.134521 394.071594,522.848755 387.902039,522.571655 
	C383.823151,522.388428 382.855560,520.696655 382.879547,517.036316 
	C382.983368,501.204529 382.727814,485.368469 383.000305,469.540802 
	C383.088165,464.439667 381.373871,462.888153 376.391510,462.991394 
	C363.731384,463.253754 351.061615,463.037506 338.395691,463.042603 
	C336.757507,463.043243 335.119415,463.219452 333.578552,463.308716 
	C332.591064,465.659637 334.028534,467.084045 334.885193,468.606842 
	C343.623627,484.140137 352.388763,499.658417 361.162842,515.171631 
	C364.915222,521.806030 364.443298,522.794800 356.982361,522.925659 
	C349.985016,523.048401 342.978058,522.794617 335.987061,523.040222 
	C331.923615,523.182983 329.683533,521.507507 327.773743,518.004639 
	C318.604736,501.186951 309.114807,484.544342 299.929504,467.735321 
	C298.129791,464.441925 296.126923,462.541290 292.182373,462.935852 
	C287.632416,463.390930 285.482971,461.444122 285.776062,456.549133 
	C286.104156,451.069519 285.993164,445.548248 285.778381,440.056671 
	C285.623077,436.085968 287.303406,434.816254 291.117249,434.865814 
	C300.780640,434.991394 310.448639,434.893677 320.113129,434.762787 
	C328.068939,434.655060 331.624695,431.013550 331.717377,423.005371 
	C331.786835,417.006470 331.620575,411.003204 331.777283,405.007568 
	C331.867950,401.540039 330.450989,400.238220 327.039307,400.329620 
	C314.384430,400.668671 301.726257,400.894348 289.068512,401.117188 
	C283.287415,401.218933 280.843018,404.948486 279.724976,409.845245 
	C276.799133,422.659454 274.544434,435.650513 271.070038,448.309784 
	C266.816681,463.807373 266.651703,479.564697 266.531982,495.359100 
	C266.404419,512.183716 266.046692,529.012817 266.811829,545.840515 
	C266.987427,549.702209 268.360809,551.112305 272.185181,551.103149 
	C287.336884,551.066895 302.489655,551.181152 317.640472,551.367432 
	C320.015320,551.396545 321.247314,549.995972 322.667480,548.607544 
	C346.765106,525.049011 381.779907,527.392273 401.243469,554.710327 
	C412.742157,570.849304 412.962738,588.660828 403.941437,606.278198 
	C392.566284,628.492126 366.726837,639.202148 343.191986,630.991028 
	C325.780853,624.916504 314.605103,612.390503 310.204956,594.408020 
	C309.022186,589.574219 307.049347,588.084656 302.151672,588.169861 
	C284.824341,588.471497 267.488678,588.319702 250.156265,588.297913 
	C239.863953,588.284973 235.191116,584.161865 234.164001,573.846802 
	C233.866455,570.858643 233.409180,568.545105 230.491959,566.870789 
	C227.677078,565.255310 226.976028,562.169373 226.969696,559.020935 
	C226.953262,550.854858 226.864197,542.687866 226.955566,534.523010 
	C226.999695,530.579773 227.925720,526.857483 231.529236,524.502808 
	C233.640091,523.123535 234.037018,521.139038 233.942520,518.861450 
	C232.733093,489.714874 239.210144,461.675873 246.158264,433.694031 
	C249.204849,421.424591 252.388321,409.172211 254.866653,396.783447 
	C257.301086,384.614227 265.671906,379.424164 276.493256,376.768066 
	C288.296570,373.870941 300.375977,374.997314 312.334808,374.972107 
	C356.831848,374.878296 401.333099,374.717499 445.825653,375.215851 
	C481.651306,375.617157 517.466431,375.593170 553.290283,375.297363 
	C595.941528,374.945190 638.596008,374.919891 681.248901,374.968719 
	C686.180908,374.974365 687.705017,373.619659 687.921021,368.560730 
	C688.683716,350.698090 702.965210,337.498596 720.749451,336.584015 
	C733.230530,335.942169 744.579834,337.951141 754.419189,346.109528 
	C761.816467,352.243011 766.402893,360.001617 767.320312,369.538574 
	C767.790039,374.422180 769.629089,376.305237 774.533875,375.783173 
	C777.991943,375.415070 781.529358,375.868225 785.023804,375.743103 
	C788.326721,375.624786 790.051270,376.903625 790.035828,380.329651 
	C790.011719,385.661896 790.054810,390.994446 790.070557,396.326874 
	C790.078430,399.010681 788.767639,400.281647 786.060547,400.227753 
	C783.395386,400.174652 780.727905,400.233948 778.061462,400.246155 
	C771.262451,400.277344 771.252319,400.277802 771.244629,407.344543 
	C771.233887,417.177368 771.227295,427.010254 771.241821,436.843048 
	C771.281494,463.674896 771.369690,490.506836 771.335144,517.338562 
	C771.330627,520.801453 771.691284,522.940247 776.092590,522.925293 
	C781.087891,522.908325 782.961792,526.950989 783.121521,531.130371 
	C783.471313,540.282166 783.442200,549.460388 783.199707,558.618042 
	C783.072998,563.403931 780.400696,566.833313 775.556763,567.895752 
	C773.138672,568.426086 772.461487,569.601929 772.170837,571.938049 
	C770.580933,584.716675 766.401917,588.318359 753.662781,588.300720 
	C742.663330,588.285522 731.659058,588.096924 720.666687,588.373352 
	C715.921448,588.492615 713.773071,587.462769 713.875732,582.109741 
	C714.047424,573.157288 711.559387,564.680725 707.270203,556.768433 
	C706.502991,555.353027 705.284058,554.038147 705.691223,552.127869 
	C707.143677,550.575134 709.096313,551.125244 710.840698,551.107666 
	C719.339478,551.021851 727.840088,550.972412 736.338379,551.065125 
	C739.739136,551.102234 741.150635,549.717834 741.104553,546.310791 
	C740.609131,509.656525 742.206604,473.009277 741.335083,436.344604 
	C741.086304,425.877960 740.995667,415.368469 741.214600,404.885529 
	C741.287659,401.388062 740.353088,400.130402 736.802551,400.208923 
	C720.345398,400.572906 723.365784,397.938202 723.182068,413.361603 
	C723.086609,421.379425 722.972107,429.369476 720.741394,437.133057 
	C716.058289,453.432159 704.595276,462.437164 687.613831,463.247894 
	C685.519958,463.347839 683.417053,463.261505 680.590698,463.261505 
	C683.548401,470.060455 687.584167,474.923126 691.075623,480.086212 
	C699.288147,492.230591 707.700989,504.239349 715.998291,516.326721 
	C717.012634,517.804504 718.656799,519.392822 717.847961,521.244202 
	C716.886169,523.445496 714.425110,522.929565 712.512390,522.947021 
	C705.013916,523.015686 697.513855,522.902771 690.015320,522.968689 
	C687.242554,522.993103 685.351562,521.908264 683.786682,519.616882 
	C670.725952,500.493164 657.594177,481.417969 644.479004,462.331421 
	C643.525146,460.943237 642.731140,459.531769 642.675049,457.763428 
	C642.500732,452.269745 642.322021,446.774841 642.026184,441.286804 
	C641.812500,437.322998 643.271362,435.506470 647.514465,435.682007 
	C653.830261,435.943298 660.164917,435.750916 666.989014,435.751892 
M339.627228,589.484558 
	C339.866852,590.106384 340.076782,590.741638 340.350494,591.348083 
	C345.127563,601.932495 357.414612,606.606506 368.025116,601.882507 
	C378.167938,597.366638 382.827942,584.942627 378.326416,574.418091 
	C373.928253,564.135193 361.608734,559.293030 351.135406,563.730774 
	C341.767334,567.700195 337.973846,575.781738 339.627228,589.484558 
M382.920074,409.594299 
	C382.923462,408.598663 382.830475,407.591675 382.946625,406.609375 
	C383.498718,401.939606 381.684143,399.855103 376.791107,400.263763 
	C373.000885,400.580322 369.154999,400.486145 365.348999,400.286407 
	C361.499908,400.084412 360.070038,401.595886 360.063568,405.491821 
	C360.048950,414.277161 360.662689,423.083588 359.659729,431.848419 
	C359.337494,434.664429 361.084778,434.801147 363.024750,434.813629 
	C368.168579,434.846680 373.315247,434.746826 378.455719,434.886505 
	C381.644318,434.973145 382.952057,433.660553 382.909363,430.482788 
	C382.820160,423.846802 382.906708,417.208466 382.920074,409.594299 
M716.259338,366.889893 
	C712.909851,374.825928 713.488098,375.715942 722.031494,375.719025 
	C726.696533,375.720734 731.362122,375.744598 736.026367,375.678528 
	C740.754456,375.611572 741.569885,374.451111 740.233398,369.904572 
	C738.932373,365.478485 735.826355,362.777618 731.504822,361.831879 
	C725.860046,360.596436 720.517822,361.166718 716.259338,366.889893 
z"/>
<path opacity="1.000000" stroke="none" 
	d="
M430.088806,551.101746 
	C491.411407,551.102844 552.246338,551.102844 614.163574,551.102844 
	C609.648132,559.527527 605.736450,566.673645 604.880615,574.923462 
	C604.709229,576.574890 604.366333,578.221558 604.345459,579.873413 
	C604.238953,588.315063 605.369080,588.294922 595.896484,588.293030 
	C537.939209,588.281677 479.981934,588.293274 422.024658,588.281616 
	C415.282532,588.280273 414.581665,588.945129 414.477173,581.425476 
	C414.355591,572.678162 412.423370,564.270630 408.217804,556.481934 
	C407.600861,555.339294 406.832764,554.177673 407.319031,551.799438 
	C414.589355,551.571472 422.095245,551.336060 430.088806,551.101746 
z"/>
<path opacity="1.000000" stroke="none" 
	d="
M647.227417,533.902466 
	C668.552063,529.831543 685.997070,536.177246 699.147766,552.639587 
	C711.026428,567.509644 713.138123,584.626221 705.630493,601.994019 
	C698.254395,619.057434 685.160095,630.787292 666.341309,633.011047 
	C645.655823,635.455322 628.704468,627.291382 617.289001,609.603699 
	C598.457886,580.425720 612.777771,544.182373 647.227417,533.902466 
M645.538574,597.967102 
	C646.325623,598.581665 647.097168,599.217346 647.902161,599.807495 
	C655.509460,605.384338 663.132935,604.543335 670.704285,599.769409 
	C677.702209,595.357056 679.879639,588.668762 679.097290,580.857483 
	C678.175537,571.653381 673.452637,565.384888 664.272278,562.942627 
	C655.483337,560.604553 646.590942,563.819275 642.389282,570.789551 
	C636.990112,579.746460 637.953308,589.539246 645.538574,597.967102 
z"/>
</svg>